<?xml version="1.0" encoding="UTF-8"?>
<svg version="1.1" xmlns="http://www.w3.org/2000/svg" width="1024" height="1024">
<path d="M0 0 C3.17342199 2.13538676 6.23835442 4.34703029 9 7 C9 7.66 9 8.32 9 9 C9.5775 9.2475 10.155 9.495 10.75 9.75 C13.32939979 11.18299988 15.06121592 12.78424676 17 15 C17 15.66 17 16.32 17 17 C17.99 17.33 18.98 17.66 20 18 C22.6875 20.4375 22.6875 20.4375 25 23 C25 23.66 25 24.32 25 25 C25.99 25.33 26.98 25.66 28 26 C30.1875 27.9375 30.1875 27.9375 32 30 C32 30.66 32 31.32 32 32 C32.5775 32.2475 33.155 32.495 33.75 32.75 C36.32939979 34.18299988 38.06121592 35.78424676 40 38 C40 38.66 40 39.32 40 40 C40.55171875 40.226875 41.1034375 40.45375 41.671875 40.6875 C44.68692417 42.38725926 46.81230369 44.54804816 49.25 47 C50.14203125 47.886875 51.0340625 48.77375 51.953125 49.6875 C54 52 54 52 54 54 C54.58156357 54.25559189 55.16312714 54.51118378 55.76231384 54.77452087 C58.22522966 56.12334806 59.83556693 57.60802591 61.80297852 59.60766602 C62.53376114 60.34505508 63.26454376 61.08244415 64.01747131 61.84217834 C64.79674484 62.63804855 65.57601837 63.43391876 66.37890625 64.25390625 C67.1873851 65.06995834 67.99586395 65.88601044 68.82884216 66.72679138 C71.41157125 69.33395862 73.9877754 71.947429 76.5625 74.5625 C79.95394781 78.00698357 83.35182974 81.44492381 86.75390625 84.87890625 C87.53520401 85.67680069 88.31650177 86.47469513 89.12147522 87.29676819 C89.84910568 88.0310051 90.57673615 88.765242 91.32641602 89.52172852 C92.28427757 90.49530052 92.28427757 90.49530052 93.26148987 91.48854065 C95.03350144 93.22438452 95.03350144 93.22438452 98 94 C97.97905273 92.94087402 97.95810547 91.88174805 97.93652344 90.79052734 C97.86386615 86.84340043 97.81810746 82.89633208 97.78027344 78.94873047 C97.76021631 77.24355106 97.73296343 75.53843994 97.69824219 73.83349609 C97.64946139 71.37580476 97.62697281 68.91902634 97.609375 66.4609375 C97.58872986 65.70444916 97.56808472 64.94796082 97.54681396 64.16854858 C97.54463976 58.98503004 98.61878172 56.1335432 102 52 C107.32187064 47.31168539 110.92468409 46.75369015 117.875 46.4375 C119.20301636 46.37598755 119.20301636 46.37598755 120.55786133 46.31323242 C126.93317612 46.04147556 133.30662353 45.86641096 139.6875 45.8125 C140.48720215 45.79952881 141.2869043 45.78655762 142.11083984 45.77319336 C148.92275885 45.76252529 156.73113807 45.96141637 161.9375 50.875 C162.75541016 51.61363281 162.75541016 51.61363281 163.58984375 52.3671875 C168.28061238 57.7986038 168.13010139 64.7235528 168.09765625 71.60498047 C168.09270142 73.51656448 168.09270142 73.51656448 168.08764648 75.46676636 C168.08352753 76.14102535 168.07940857 76.81528435 168.07516479 77.50997543 C168.06218063 79.67032614 168.05582565 81.83061375 168.05102539 83.99099731 C168.03777201 89.37946784 168.01413196 94.76788156 167.98962402 100.15631104 C167.94243153 110.67710892 167.9359713 121.19666959 167.99078369 131.717453 C168.0001499 134.03712542 168.00140448 136.35670177 168.00146484 138.6763916 C168.00456944 142.48291048 168.04026852 146.28794017 168.09866333 150.09399796 C168.11597452 151.51628104 168.12333034 152.93872653 168.11984253 154.36111069 C168.11704277 156.33090563 168.15542291 158.30062654 168.1953125 160.27001953 C168.20578613 161.38071808 168.21625977 162.49141663 168.22705078 163.63577271 C170.13216852 171.92771343 177.70576765 177.98258878 183.55639648 183.76757812 C184.39458923 184.60445663 185.23278198 185.44133514 186.09637451 186.30357361 C188.85003127 189.05077433 191.61059848 191.79092253 194.37109375 194.53125 C196.29743517 196.45008573 198.22210251 198.37059687 200.14674377 200.2911377 C204.68889815 204.82195227 209.23570406 209.34806506 213.78460699 213.87210321 C221.92173804 221.96482255 230.05328888 230.06313891 238.17953545 238.16678762 C241.48177099 241.4593396 244.78851059 244.74732572 248.09629822 248.03430176 C249.83571936 249.76689046 251.57502882 251.49959129 253.31420898 253.23242188 C254.09313004 254.00460556 254.87205109 254.77678925 255.67457581 255.57237244 C272.45352141 272.3166227 272.45352141 272.3166227 273.3125 281.25 C272.8597518 286.68297835 271.36038347 290.84208735 267.26953125 294.58203125 C258.12151975 300.91807913 245.94951297 299.05912933 235.33007812 298.78515625 C228.47828049 298.6978722 223.4414899 298.79585423 218.1875 303.6875 C215.30242879 309.30579656 215.85475208 316.58173327 215.86869812 322.78450012 C215.86658241 323.63295319 215.86446669 324.48140625 215.86228687 325.35557002 C215.85632758 328.17952411 215.85728409 331.00343299 215.8581543 333.82739258 C215.85512012 335.85996069 215.85159795 337.89252811 215.84762573 339.9250946 C215.83975666 344.29352201 215.83459936 348.66194131 215.83133507 353.03037453 C215.82540784 359.94407759 215.80885165 366.85772965 215.78999329 373.77140808 C215.78365649 376.141633 215.77733086 378.51185796 215.77101612 380.88208294 C215.76785031 382.06882559 215.7646845 383.25556824 215.76142275 384.4782728 C215.71939859 400.5663168 215.68636837 416.65433637 215.67407227 432.74243164 C215.6656845 443.60552953 215.64317004 454.46850028 215.6047166 465.33153456 C215.5849859 471.07465417 215.57254166 476.81758386 215.57755089 482.56073952 C215.58220684 487.96419129 215.5683399 493.36728307 215.54053879 498.77066231 C215.53364394 500.74786955 215.53348198 502.72511415 215.54073906 504.7023201 C215.58595306 518.41061373 214.99067785 530.52590226 205 541 C192.30454208 552.35216258 178.63276662 553.30645393 162.20433044 553.25396729 C160.62216377 553.25627519 159.03999816 553.25945392 157.45783478 553.26342177 C153.1351615 553.27173297 148.81257708 553.2676613 144.48990357 553.26144934 C139.8184177 553.25691079 135.14694674 553.26391553 130.47546387 553.26940918 C121.33416657 553.27828965 112.19290218 553.27638723 103.05160361 553.2705839 C95.62107531 553.2660624 88.19055621 553.26545662 80.76002693 553.26763153 C79.17214833 553.26809123 79.17214833 553.26809123 77.55219137 553.26856022 C75.40153455 553.26919968 73.25087774 553.26984811 71.10022093 553.2705054 C50.9468408 553.27620468 30.79347888 553.26965696 10.64010174 553.25890467 C-6.64480783 553.24996823 -23.92969053 553.25152275 -41.21459961 553.26074219 C-61.29869321 553.27144968 -81.38277086 553.27565676 -101.46686691 553.26951766 C-103.60919217 553.26888058 -105.75151743 553.26825183 -107.8938427 553.26763153 C-109.47484607 553.2671687 -109.47484607 553.2671687 -111.0877889 553.26669653 C-118.50815612 553.26497113 -125.92851321 553.26788133 -133.34887886 553.27259064 C-142.39348594 553.27820473 -151.43805832 553.27667183 -160.48266143 553.26602915 C-165.09552813 553.26077978 -169.70833699 553.25870322 -174.32120323 553.26532745 C-178.54707715 553.2713041 -182.77283983 553.26798354 -186.99870371 553.25737235 C-188.52411363 553.25514561 -190.04953303 553.25625824 -191.57493681 553.26112393 C-199.5814212 553.28469584 -207.20929923 553.04006757 -215 551 C-215.33 551.66 -215.66 552.32 -216 553 C-216.66 552.34 -217.32 551.68 -218 551 C-219.94015843 549.49859109 -221.90692241 548.06387308 -223.9296875 546.67578125 C-231.67786872 541.24583096 -237.18687971 534.11739498 -240 525 C-240.84751963 519.33860058 -241.14579753 513.85522115 -241.13803101 508.13716125 C-241.14085229 507.28039124 -241.14367357 506.42362123 -241.14658034 505.54088849 C-241.15486917 502.68911487 -241.15625961 499.83738035 -241.15771484 496.9855957 C-241.16238702 494.93344006 -241.16753125 492.88128545 -241.17311096 490.82913208 C-241.18436128 486.41976838 -241.19280994 482.01041131 -241.19923019 477.60103798 C-241.20993309 470.63017399 -241.23018152 463.65935812 -241.25234985 456.68852234 C-241.31420543 436.86976308 -241.36834914 417.05100762 -241.40136719 397.23217773 C-241.41969475 386.27906048 -241.44860055 375.32602476 -241.4893719 364.37296742 C-241.51046015 358.57864951 -241.52590189 352.78443438 -241.52817917 346.99007607 C-241.53032175 341.54565509 -241.5461512 336.10144871 -241.57256889 330.65709305 C-241.57977617 328.65801488 -241.58185597 326.65891075 -241.57846642 324.65982246 C-241.57458173 321.9335888 -241.58899338 319.20804392 -241.60800171 316.48188782 C-241.60247201 315.68870079 -241.59694232 314.89551376 -241.59124506 314.07829076 C-241.64657417 309.49007719 -242.36281183 306.7442207 -245 303 C-245 302.34 -245 301.68 -245 301 C-250.04141685 299.35999158 -254.30246138 298.75109075 -259.65625 298.7265625 C-261.10547659 298.7062816 -262.55469529 298.68543097 -264.00390625 298.6640625 C-266.25511407 298.64147677 -268.50600824 298.6249844 -270.75732422 298.61914062 C-272.95335419 298.60956143 -275.14802789 298.5757414 -277.34375 298.5390625 C-278.64505859 298.53084473 -279.94636719 298.52262695 -281.28710938 298.51416016 C-286.38027425 297.80885997 -290.09861169 295.91392494 -293.77734375 292.2109375 C-297.1293409 286.90643023 -298.14966633 282.2291012 -297 276 C-295.1875 272.625 -295.1875 272.625 -293 270 C-292.195625 268.824375 -292.195625 268.824375 -291.375 267.625 C-290.92125 267.08875 -290.4675 266.5525 -290 266 C-289.34 266 -288.68 266 -288 266 C-288 265.34 -288 264.68 -288 264 C-287.34 264 -286.68 264 -286 264 C-285.01 262.02 -285.01 262.02 -284 260 C-283.34 260 -282.68 260 -282 260 C-282 259.34 -282 258.68 -282 258 C-281.34 258 -280.68 258 -280 258 C-279.67 257.01 -279.34 256.02 -279 255 C-278.34 255 -277.68 255 -277 255 C-277 254.34 -277 253.68 -277 253 C-275.5390625 251.59765625 -275.5390625 251.59765625 -273.625 250.0625 C-271.16098476 248.08013383 -269.79533563 246.69300345 -268 244 C-267.34 244 -266.68 244 -266 244 C-265.73082764 243.40616516 -265.46165527 242.81233032 -265.18432617 242.20050049 C-263.99891049 239.99797566 -262.80893868 238.55550407 -261.05078125 236.79199219 C-260.15975708 235.89151154 -260.15975708 235.89151154 -259.25073242 234.97283936 C-258.29130737 234.019487 -258.29130737 234.019487 -257.3125 233.046875 C-256.65419189 232.38665344 -255.99588379 231.72643188 -255.31762695 231.04620361 C-253.92807708 229.65529499 -252.53600726 228.26689992 -251.14160156 226.88085938 C-249.00090714 224.75090259 -246.8711209 222.61045504 -244.7421875 220.46875 C-243.39126613 219.11914961 -242.03972482 217.77016941 -240.6875 216.421875 C-240.0478833 215.77820984 -239.4082666 215.13454468 -238.74926758 214.47137451 C-234.22992911 210 -234.22992911 210 -232 210 C-231.773125 209.443125 -231.54625 208.88625 -231.3125 208.3125 C-229.62594519 205.34095104 -227.44443894 203.397301 -225 201 C-223.91069854 199.89134504 -222.82355391 198.78056785 -221.73828125 197.66796875 C-220.59641694 196.50775071 -219.45448901 195.34759529 -218.3125 194.1875 C-217.73177734 193.59001953 -217.15105469 192.99253906 -216.55273438 192.37695312 C-215.07274424 190.87985327 -213.54017218 189.43511269 -212 188 C-211.34 188 -210.68 188 -210 188 C-209.79375 187.46890625 -209.5875 186.9378125 -209.375 186.390625 C-207.42038808 182.99226564 -204.77876283 180.48944072 -202 177.75 C-201.4534375 177.19570313 -200.906875 176.64140625 -200.34375 176.0703125 C-196.2533867 172 -196.2533867 172 -194 172 C-193.75635208 171.431035 -193.51270416 170.86207001 -193.26167297 170.27586365 C-191.76657839 167.57894338 -190.00076608 165.76096775 -187.81323242 163.58618164 C-186.94860886 162.72170914 -186.08398529 161.85723663 -185.19316101 160.96656799 C-184.25672256 160.04045212 -183.32028412 159.11433624 -182.35546875 158.16015625 C-181.38337695 157.1917995 -180.41172941 156.22299661 -179.44050598 155.25376892 C-176.88386148 152.70474908 -174.32127579 150.1617848 -171.75738525 147.62005615 C-169.16215987 145.04521239 -166.57250497 142.46478025 -163.98242188 139.88476562 C-159.41214348 135.33360525 -154.83698363 130.78739689 -150.25822449 126.24476624 C-149.51301041 125.50399338 -148.76779633 124.76322052 -148 124 C-147.12189163 123.14317123 -146.24378326 122.28634247 -145.33906555 121.40354919 C-142.89096099 119.03443867 -142.89096099 119.03443867 -141 116 C-140.34 116 -139.68 116 -139 116 C-139 115.34 -139 114.68 -139 114 C-138.34 114 -137.68 114 -137 114 C-136.75001755 113.42437317 -136.5000351 112.84874634 -136.24247742 112.25567627 C-134.82523495 109.68271989 -133.20813768 107.97480278 -131.12036133 105.90917969 C-130.3222554 105.11445251 -129.52414948 104.31972534 -128.70185852 103.50091553 C-127.83731552 102.64983215 -126.97277252 101.79874878 -126.08203125 100.921875 C-125.19142502 100.03647034 -124.30081879 99.15106567 -123.38322449 98.23883057 C-121.01381223 95.88422236 -118.64045715 93.53375145 -116.26464844 91.18560791 C-112.93722835 87.89608841 -109.61478841 84.60157268 -106.29533386 81.30401611 C-104.53065247 79.55147181 -102.76330509 77.80160649 -100.99287415 76.05487061 C-97.44796449 72.53840725 -93.96112051 69.02591293 -90.71484375 65.23022461 C-85.44595745 59.10121002 -79.66959731 53.44207846 -73.98046875 47.70703125 C-73.35948114 47.08071997 -72.73849354 46.45440868 -72.09868813 45.80911827 C-68.81597659 42.49984596 -65.52971135 39.19414523 -62.2409668 35.89086914 C-59.53695152 33.17348984 -56.84040343 30.44901747 -54.15014648 27.71801758 C-50.8788785 24.39724135 -47.59532715 21.08908859 -44.30275917 17.78943443 C-43.05907753 16.53907988 -41.81962127 15.28450638 -40.58470726 14.02549171 C-29.53442702 2.77180743 -16.34527838 -8.6216853 0 0 Z M-23 140 C-22.04230889 144.86826316 -21.06311206 149.72920628 -20.01171875 154.578125 C-19.83543945 155.39692139 -19.65916016 156.21571777 -19.47753906 157.05932617 C-19.12506743 158.69309276 -18.76910552 160.32611136 -18.40917969 161.95825195 C-11.58036825 193.73064581 -15.9256344 227.20505844 -33 255 C-39.20558695 264.30268723 -47.75881754 276.89614273 -58 282 C-62.18045975 282.59720854 -64.16024787 282.56634446 -67.6875 280.1875 C-73.17579487 272.62255302 -74.9405256 262.93422498 -77.33789062 254.01879883 C-78.3982125 249.91183653 -78.3982125 249.91183653 -80 246 C-85.36268641 247.48394948 -88.48534795 251.06923804 -92.25 254.9375 C-92.91459229 255.61192139 -93.57918457 256.28634277 -94.26391602 256.98120117 C-99.54303955 262.39784539 -104.34669621 268.03564633 -109 274 C-109.6496875 274.77085937 -110.299375 275.54171875 -110.96875 276.3359375 C-135.54851098 305.69509645 -150.16853192 346.11081716 -146.77734375 384.52197266 C-143.85487952 412.15675322 -134.44947572 436.70045978 -115 457 C-114.07960938 458.01513672 -114.07960938 458.01513672 -113.140625 459.05078125 C-89.88492813 483.84691958 -53.69927735 494.53706143 -20.64453125 495.91015625 C-19.44183594 495.93980469 -18.23914063 495.96945312 -17 496 C-15.86949219 496.03996094 -14.73898437 496.07992188 -13.57421875 496.12109375 C19.99780274 496.77936868 55.33793404 487.30560369 81 465 C81.81984375 464.31292969 82.6396875 463.62585938 83.484375 462.91796875 C105.73330476 443.74381345 117.49801293 416.86084047 121 388 C121.29158144 383.01726615 121.33420955 378.05290443 121.3125 373.0625 C121.31034485 372.38369781 121.3081897 371.70489563 121.30596924 371.00552368 C121.24577683 359.12343753 120.34655117 347.6604889 118 336 C117.80664062 335.01290039 117.61328125 334.02580078 117.4140625 333.00878906 C113.12016624 311.58569243 106.75637068 290.59542248 97 271 C96.05885345 268.91831145 95.1214971 266.8349061 94.1875 264.75 C84.93042963 244.76915461 73.71443973 226.23321837 60 209 C59.53883789 208.42024414 59.07767578 207.84048828 58.60253906 207.24316406 C44.19238726 189.39666662 26.94392287 171.0044091 8 158 C7.29294922 157.50757813 6.58589844 157.01515625 5.85742188 156.5078125 C-7.63629263 145.76016886 -7.63629263 145.76016886 -23 140 Z " fill="#F95852" transform="translate(524,222)"/>
<path d="M0 0 C1.15680267 0.00424484 1.15680267 0.00424484 2.3369751 0.00857544 C4.79251832 0.01974237 7.2476926 0.04484021 9.703125 0.0703125 C11.37108847 0.08034682 13.03905768 0.08947189 14.70703125 0.09765625 C18.78920397 0.11967025 22.871102 0.15417583 26.953125 0.1953125 C26.953125 0.5253125 26.953125 0.8553125 26.953125 1.1953125 C22.85397432 1.97803036 19.05945997 2.28697757 14.890625 2.1875 C13.76398438 2.17074219 12.63734375 2.15398438 11.4765625 2.13671875 C9.12744399 2.0924449 6.77845973 2.04035984 4.4296875 1.98046875 C-2.47334687 1.89358845 -7.56554043 1.95406997 -12.859375 6.8828125 C-15.74444621 12.50110906 -15.19212292 19.77704577 -15.17817688 25.97981262 C-15.18029259 26.82826569 -15.18240831 27.67671875 -15.18458813 28.55088252 C-15.19054742 31.37483661 -15.18959091 34.19874549 -15.1887207 37.02270508 C-15.19175488 39.05527319 -15.19527705 41.08784061 -15.19924927 43.1204071 C-15.20711834 47.48883451 -15.21227564 51.85725381 -15.21553993 56.22568703 C-15.22146716 63.13939009 -15.23802335 70.05304215 -15.25688171 76.96672058 C-15.26321851 79.3369455 -15.26954414 81.70717046 -15.27585888 84.07739544 C-15.27902469 85.26413809 -15.2821905 86.45088074 -15.28545225 87.6735853 C-15.32747641 103.7616293 -15.36050663 119.84964887 -15.37280273 135.93774414 C-15.3811905 146.80084203 -15.40370496 157.66381278 -15.4421584 168.52684706 C-15.4618891 174.26996667 -15.47433334 180.01289636 -15.46932411 185.75605202 C-15.46466816 191.15950379 -15.4785351 196.56259557 -15.50633621 201.96597481 C-15.51323106 203.94318205 -15.51339302 205.92042665 -15.50613594 207.8976326 C-15.46092194 221.60592623 -16.05619715 233.72121476 -26.046875 244.1953125 C-38.74233292 255.54747508 -52.41410838 256.50176643 -68.84254456 256.44927979 C-70.42471123 256.45158769 -72.00687684 256.45476642 -73.58904022 256.45873427 C-77.9117135 256.46704547 -82.23429792 256.4629738 -86.55697143 256.45676184 C-91.2284573 256.45222329 -95.89992826 256.45922803 -100.57141113 256.46472168 C-109.71270843 256.47360215 -118.85397282 256.47169973 -127.99527139 256.4658964 C-135.42579969 256.4613749 -142.85631879 256.46076912 -150.28684807 256.46294403 C-151.87472667 256.46340373 -151.87472667 256.46340373 -153.49468363 256.46387272 C-155.64534045 256.46451218 -157.79599726 256.46516061 -159.94665407 256.4658179 C-180.1000342 256.47151718 -200.25339612 256.46496946 -220.40677326 256.45421717 C-237.69168283 256.44528073 -254.97656553 256.44683525 -272.26147461 256.45605469 C-292.34556821 256.46676218 -312.42964586 256.47096926 -332.51374191 256.46483016 C-334.65606717 256.46419308 -336.79839243 256.46356433 -338.9407177 256.46294403 C-340.52172107 256.4624812 -340.52172107 256.4624812 -342.1346639 256.46200903 C-349.55503112 256.46028363 -356.97538821 256.46319383 -364.39575386 256.46790314 C-373.44036094 256.47351723 -382.48493332 256.47198433 -391.52953643 256.46134165 C-396.14240313 256.45609228 -400.75521199 256.45401572 -405.36807823 256.46063995 C-409.59395215 256.4666166 -413.81971483 256.46329604 -418.04557871 256.45268485 C-419.57098863 256.45045811 -421.09640803 256.45157074 -422.62181181 256.45643643 C-430.6282962 256.48000834 -438.25617423 256.23538007 -446.046875 254.1953125 C-446.376875 254.8553125 -446.706875 255.5153125 -447.046875 256.1953125 C-447.706875 255.5353125 -448.366875 254.8753125 -449.046875 254.1953125 C-450.98703343 252.69390359 -452.95379741 251.25918558 -454.9765625 249.87109375 C-462.93827989 244.29149662 -467.83371416 237.35527569 -471.046875 228.1953125 C-471.55575669 225.09629803 -471.572975 222.08618386 -471.52789307 218.95079041 C-471.53131077 218.06513682 -471.53472847 217.17948324 -471.53824973 216.26699167 C-471.54479571 213.32340852 -471.52290717 210.38075384 -471.50097656 207.43725586 C-471.49984737 205.3177289 -471.50048334 203.19820037 -471.50274658 201.07867432 C-471.50389186 195.34164892 -471.48041236 189.60495964 -471.45245075 183.86801219 C-471.42740626 177.86625429 -471.42509269 171.86448825 -471.42034912 165.86268616 C-471.40792834 154.50501105 -471.37511873 143.14749037 -471.33495116 131.7898832 C-471.29020564 118.8564478 -471.26823939 105.92300493 -471.24816942 92.98951137 C-471.20638542 66.39135954 -471.13605068 39.79334468 -471.046875 13.1953125 C-470.716875 13.1953125 -470.386875 13.1953125 -470.046875 13.1953125 C-470.04356485 14.25807089 -470.04025471 15.32082928 -470.03684425 16.41579247 C-469.95580667 42.28947138 -469.86347781 68.16309129 -469.75934792 94.03668785 C-469.70925194 106.54902299 -469.66280863 119.06135167 -469.625 131.57373047 C-469.59203208 142.48104671 -469.55217428 153.38831244 -469.50408494 164.29557288 C-469.47886775 170.06946629 -469.45707233 175.8433264 -469.44353104 181.61725998 C-469.43066735 187.05581105 -469.40856654 192.49424763 -469.37949181 197.93273544 C-469.37044967 199.92486836 -469.36473369 201.9170197 -469.36266136 203.90917206 C-469.35738589 225.7219865 -469.35738589 225.7219865 -458.375 244.07421875 C-452.16418401 249.73273063 -444.7853608 252.31718549 -436.50836182 252.32953358 C-435.50268633 252.33306192 -435.50268633 252.33306192 -434.47669417 252.33666155 C-432.21393887 252.34335656 -429.95124094 252.34289317 -427.68847656 252.34248352 C-426.05618038 252.34578185 -424.42388501 252.34950735 -422.79159069 252.353625 C-418.29317946 252.36365694 -413.79478157 252.36736372 -409.29636073 252.37001431 C-404.44952625 252.37391391 -399.60270236 252.38349259 -394.75587463 252.39222717 C-383.04321497 252.41200289 -371.33055444 252.42205989 -359.61788225 252.43095496 C-354.10335769 252.43533666 -348.5888341 252.44070383 -343.0743103 252.44594383 C-324.74397481 252.46295837 -306.41363991 252.47745223 -288.08329773 252.48469257 C-283.3249003 252.4866025 -278.56650288 252.48852283 -273.80810547 252.49047852 C-272.62541332 252.49096226 -271.44272118 252.491446 -270.22418988 252.4919444 C-251.06823075 252.50024347 -231.9123341 252.52557733 -212.75640225 252.55805919 C-193.09290712 252.59113001 -173.42944373 252.60914142 -153.76592064 252.61233681 C-142.72423811 252.61450205 -131.68264664 252.62325259 -120.64099121 252.64879799 C-111.23644497 252.67050539 -101.8320119 252.67855524 -92.42744344 252.66883121 C-87.63014013 252.66428645 -82.83307031 252.66618301 -78.03579903 252.68559265 C-73.63983872 252.70322469 -69.24428223 252.70222626 -64.84831762 252.68669536 C-63.26207988 252.68431933 -61.67581418 252.68864259 -60.08961916 252.70052401 C-50.45148667 252.7682186 -40.8944586 252.59986982 -32.87646198 246.56049901 C-31.046875 245.1953125 -31.046875 245.1953125 -29.046875 245.1953125 C-29.046875 244.5353125 -29.046875 243.8753125 -29.046875 243.1953125 C-28.386875 243.1953125 -27.726875 243.1953125 -27.046875 243.1953125 C-26.76972656 242.63585937 -26.49257813 242.07640625 -26.20703125 241.5 C-25.41886473 239.934282 -24.61348423 238.37713554 -23.79296875 236.828125 C-23.14521484 235.58675781 -23.14521484 235.58675781 -22.484375 234.3203125 C-22.04996094 233.49789062 -21.61554688 232.67546875 -21.16796875 231.828125 C-18.82363144 226.32260811 -18.89918465 220.6186857 -18.90211487 214.72052002 C-18.89858802 213.88123734 -18.89506118 213.04195467 -18.89142746 212.17723918 C-18.88077564 209.37238557 -18.8770656 206.56756597 -18.87329102 203.76269531 C-18.86698297 201.74850319 -18.86021689 199.73431246 -18.85302734 197.72012329 C-18.83837407 193.38549337 -18.82664251 189.05086877 -18.81707954 184.71622467 C-18.80160638 177.85756417 -18.77765684 170.99894952 -18.75218201 164.14031982 C-18.68103569 144.63784687 -18.62122707 125.13534778 -18.57006836 105.6328125 C-18.54173307 94.85949848 -18.50633526 84.08623021 -18.46341461 73.3129642 C-18.43669626 66.49998341 -18.41875785 59.68705435 -18.40737736 52.87403154 C-18.39822672 48.62776332 -18.38085327 44.38155775 -18.36119843 40.13532639 C-18.35374936 38.17221185 -18.34964346 36.20908122 -18.34920311 34.24595261 C-18.33972629 10.86387456 -18.33972629 10.86387456 -14.171875 4.1953125 C-9.75423251 0.03753133 -5.89885741 -0.08174028 0 0 Z " fill="#F54837" transform="translate(755.046875,518.8046875)"/>
<path d="M0 0 C1.80887695 -0.01836914 1.80887695 -0.01836914 3.65429688 -0.03710938 C21.31586605 -0.06604695 21.31586605 -0.06604695 26.75 5.0625 C27.29527344 5.55492187 27.84054687 6.04734375 28.40234375 6.5546875 C33.09311238 11.9861038 32.94260139 18.9110528 32.91015625 25.79248047 C32.90685303 27.06686981 32.9035498 28.34125916 32.90014648 29.65426636 C32.89602753 30.32852535 32.89190857 31.00278435 32.88766479 31.69747543 C32.87468063 33.85782614 32.86832565 36.01811375 32.86352539 38.17849731 C32.85027201 43.56696784 32.82663196 48.95538156 32.80212402 54.34381104 C32.75493153 64.86460892 32.7484713 75.38416959 32.80328369 85.904953 C32.8126499 88.22462542 32.81390448 90.54420177 32.81396484 92.8638916 C32.81706944 96.67041048 32.85276852 100.47544017 32.91116333 104.28149796 C32.92847452 105.70378104 32.93583034 107.12622653 32.93234253 108.54861069 C32.92954277 110.51840563 32.96792291 112.48812654 33.0078125 114.45751953 C33.01828613 115.56821808 33.02875977 116.67891663 33.03955078 117.82327271 C34.94466852 126.11521343 42.51826765 132.17008878 48.36889648 137.95507812 C49.62618561 139.21039589 49.62618561 139.21039589 50.90887451 140.49107361 C53.66253127 143.23827433 56.42309848 145.97842253 59.18359375 148.71875 C61.10993517 150.63758573 63.03460251 152.55809687 64.95924377 154.4786377 C69.50139815 159.00945227 74.04820406 163.53556506 78.59710699 168.05960321 C86.73423804 176.15232255 94.86578888 184.25063891 102.99203545 192.35428762 C106.29427099 195.6468396 109.60101059 198.93482572 112.90879822 202.22180176 C114.64821936 203.95439046 116.38752882 205.68709129 118.12670898 207.41992188 C118.90563004 208.19210556 119.68455109 208.96428925 120.48707581 209.75987244 C137.26602141 226.5041227 137.26602141 226.5041227 138.125 235.4375 C137.60785876 241.64319493 135.54804222 245.70505768 130.8125 249.75 C127.55836174 251.30927459 127.04074096 251.23806979 123.8125 250.1875 C124.35519531 249.88457031 124.89789062 249.58164062 125.45703125 249.26953125 C131.33873029 245.8689173 131.33873029 245.8689173 134.8125 240.1875 C135.52041928 233.93421302 134.1455262 228.20717217 130.28941727 223.21615028 C128.35075435 221.11298567 126.34732076 219.10356567 124.29931641 217.10668945 C123.53637772 216.34302063 122.77343903 215.57935181 121.98738098 214.7925415 C119.474616 212.28324591 116.94462973 209.79211176 114.4140625 207.30078125 C112.6580371 205.55409065 110.90311934 203.80628584 109.14926147 202.05741882 C104.53599182 197.46320321 99.90791483 192.88419179 95.27655029 188.30822754 C90.57121538 183.6539771 85.87992905 178.98561492 81.1875 174.31835938 C73.60598627 166.78076642 66.01588449 159.25195242 58.41471863 151.73417664 C47.69154032 141.12712097 47.69154032 141.12712097 43.5 136.4375 C42.80261719 135.65890625 42.10523438 134.8803125 41.38671875 134.078125 C40.53722656 133.12421875 39.68773437 132.1703125 38.8125 131.1875 C38.16282761 130.7092276 37.51315521 130.2309552 36.84379578 129.7381897 C32.68175553 126.21587502 30.67198766 122.91301804 30.0823822 117.51037598 C29.71655757 111.4698648 29.8090891 105.43078124 29.8828125 99.3828125 C29.88036857 97.13515514 29.8741116 94.88749901 29.86422729 92.63986206 C29.84715377 86.73526619 29.87592704 80.83181783 29.91619873 74.92736816 C29.97183304 65.48611501 29.95284428 56.04463153 29.94292831 46.60326767 C29.94526808 43.32014501 29.96414655 40.03746664 29.98635864 36.75442505 C29.99256771 34.72186339 29.99858935 32.68930114 30.00439453 30.65673828 C30.0148027 29.75665039 30.02521088 28.8565625 30.03593445 27.92919922 C30.22368569 16.39622335 30.22368569 16.39622335 25.375 6.5625 C21.88073083 4.6875263 19.23565626 4.06095907 15.32861328 4.04223633 C14.42402374 4.03585648 13.5194342 4.02947662 12.58743286 4.02290344 C11.61240814 4.02179062 10.63738342 4.0206778 9.6328125 4.01953125 C8.12544022 4.01453865 8.12544022 4.01453865 6.58761597 4.00944519 C4.46092181 4.0043809 2.33421971 4.00203671 0.20751953 4.00219727 C-3.04277687 4.00001325 -6.29273253 3.98185896 -9.54296875 3.96289062 C-11.60937384 3.9599561 -13.67578054 3.9579717 -15.7421875 3.95703125 C-16.71316376 3.94984573 -17.68414001 3.94266022 -18.68453979 3.93525696 C-25.18438269 3.9001103 -25.18438269 3.9001103 -31.1875 6.1875 C-32.53160262 8.20485205 -32.53160262 8.20485205 -33.1875 10.1875 C-33.5175 9.1975 -33.8475 8.2075 -34.1875 7.1875 C-24.09367315 -1.37030972 -12.89596798 0.00695951 0 0 Z " fill="#F74937" transform="translate(659.1875,267.8125)"/>
<path d="M0 0 C2.76621096 2.76621096 3.44434482 6.04910564 4.625 9.6875 C14.68889269 39.23353439 35.68115134 61.11986658 63.3984375 74.8984375 C83.24268419 84.25052093 105.16124035 88.46163829 127 89 C128.13050781 89.03996094 129.26101563 89.07992187 130.42578125 89.12109375 C163.99479424 89.77930969 199.34196497 80.30764698 225 58 C225.83144531 57.30132813 226.66289063 56.60265625 227.51953125 55.8828125 C233.71840221 50.53140623 239.25949899 44.69853404 244 38 C244 37.34 244 36.68 244 36 C244.99039756 34.99048889 245.99175877 33.99169028 247 33 C248.05847558 31.3211349 248.05847558 31.3211349 248.9375 29.48828125 C249.27523437 28.81216797 249.61296875 28.13605469 249.9609375 27.43945312 C250.30382812 26.73755859 250.64671875 26.03566406 251 25.3125 C251.51433594 24.28866211 251.51433594 24.28866211 252.0390625 23.24414062 C254.34229527 18.58932478 256.24463561 13.88759272 258 9 C258.66 9 259.32 9 260 9 C256.61021387 30.69463125 239.33747931 51.4565794 222.19311523 64.41113281 C185.81164268 90.7521081 141.35570629 95.78078524 98 89 C67.87536152 84.03695984 37.76718555 67.22673043 19 43 C10.8480075 31.07829998 0 14.86487996 0 0 Z " fill="#F94633" transform="translate(380,628)"/>
<path d="M0 0 C0 0.66 0 1.32 0 2 C-0.82242188 1.94199219 -1.64484375 1.88398438 -2.4921875 1.82421875 C-3.60851562 1.77910156 -4.72484375 1.73398438 -5.875 1.6875 C-7.51082031 1.60048828 -7.51082031 1.60048828 -9.1796875 1.51171875 C-21.02969855 3.02629071 -28.47911163 11.80038243 -36.41015625 19.88671875 C-37.67039501 21.15375802 -38.93167947 22.41975798 -40.19395447 23.68476868 C-43.49115479 26.99529735 -46.77265106 30.32098262 -50.0513916 33.64978027 C-52.73998871 36.37395336 -55.43987983 39.08677931 -58.14035892 41.79916668 C-61.35922261 45.03278681 -64.57282981 48.27160584 -67.78515625 51.51171875 C-68.39849382 52.1299671 -69.0118314 52.74821545 -69.64375496 53.38519859 C-71.3696167 55.12728926 -73.09182819 56.87289817 -74.81274414 58.61987305 C-75.32643051 59.13781937 -75.84011688 59.65576569 -76.36936951 60.18940735 C-79.01150964 62.85027453 -79.01150964 62.85027453 -81 66 C-81.66 66 -82.32 66 -83 66 C-83 66.66 -83 67.32 -83 68 C-84.36328125 69.3046875 -84.36328125 69.3046875 -86.3125 70.875 C-90.73305349 74.59965241 -94.52107691 78.74536728 -98.31762695 83.08740234 C-99.50688982 84.42652213 -100.74947797 85.71789914 -102 87 C-102.66 87 -103.32 87 -104 87 C-104.25755569 87.58320007 -104.51511139 88.16640015 -104.7804718 88.76727295 C-106.10585158 91.19379435 -107.54839298 92.78275928 -109.51245117 94.72363281 C-110.23047409 95.43827698 -110.94849701 96.15292114 -111.6882782 96.88922119 C-112.46532608 97.65280945 -113.24237396 98.41639771 -114.04296875 99.203125 C-114.8447908 99.99974548 -115.64661285 100.79636597 -116.47273254 101.61712646 C-119.03962418 104.1662075 -121.61307558 106.7085286 -124.1875 109.25 C-126.74324392 111.77799819 -129.2974739 114.30747833 -131.84870911 116.84002686 C-133.4353202 118.41452445 -135.02459594 119.98634314 -136.61698914 121.55499268 C-140.7949594 125.69577764 -144.74400543 129.91467109 -148.48188782 134.45941162 C-150 136 -150 136 -153 137 C-153.33 137.66 -153.66 138.32 -154 139 C-154.33 139.66 -154.66 140.32 -155 141 C-155.99 141.33 -156.98 141.66 -158 142 C-158.27738007 142.56144714 -158.55476013 143.12289429 -158.84054565 143.70135498 C-160.48205911 146.95569332 -162.98500281 149.24653513 -165.55126953 151.77832031 C-166.11726868 152.34461151 -166.68326782 152.91090271 -167.26641846 153.49435425 C-169.1338472 155.36039238 -171.00825462 157.21925096 -172.8828125 159.078125 C-174.18076411 160.37234554 -175.47827416 161.66700905 -176.77536011 162.96209717 C-180.18714836 166.36625646 -183.60490052 169.76436634 -187.02392578 173.16125488 C-190.5130592 176.62991407 -193.99652387 180.10425583 -197.48046875 183.578125 C-204.31477368 190.39099302 -211.15539203 197.1974842 -218 204 C-218.33 203.01 -218.66 202.02 -219 201 C-217.21427748 199.16052663 -215.42197551 197.32842259 -213.625 195.5 C-213.11710937 194.97535156 -212.60921875 194.45070313 -212.0859375 193.91015625 C-210.76167396 192.56846819 -209.38394135 191.28004185 -208 190 C-207.34 190 -206.68 190 -206 190 C-205.79375 189.46890625 -205.5875 188.9378125 -205.375 188.390625 C-203.42038808 184.99226564 -200.77876283 182.48944072 -198 179.75 C-197.4534375 179.19570313 -196.906875 178.64140625 -196.34375 178.0703125 C-192.2533867 174 -192.2533867 174 -190 174 C-189.75635208 173.431035 -189.51270416 172.86207001 -189.26167297 172.27586365 C-187.76657839 169.57894338 -186.00076608 167.76096775 -183.81323242 165.58618164 C-182.51629707 164.28947289 -182.51629707 164.28947289 -181.19316101 162.96656799 C-180.25672256 162.04045212 -179.32028412 161.11433624 -178.35546875 160.16015625 C-177.38337695 159.1917995 -176.41172941 158.22299661 -175.44050598 157.25376892 C-172.88386148 154.70474908 -170.32127579 152.1617848 -167.75738525 149.62005615 C-165.16215987 147.04521239 -162.57250497 144.46478025 -159.98242188 141.88476562 C-155.41214348 137.33360525 -150.83698363 132.78739689 -146.25822449 128.24476624 C-145.51301041 127.50399338 -144.76779633 126.76322052 -144 126 C-142.68283745 124.71475685 -142.68283745 124.71475685 -141.33906555 123.40354919 C-138.89096099 121.03443867 -138.89096099 121.03443867 -137 118 C-136.34 118 -135.68 118 -135 118 C-135 117.34 -135 116.68 -135 116 C-134.34 116 -133.68 116 -133 116 C-132.75001755 115.42437317 -132.5000351 114.84874634 -132.24247742 114.25567627 C-130.82523495 111.68271989 -129.20813768 109.97480278 -127.12036133 107.90917969 C-126.3222554 107.11445251 -125.52414948 106.31972534 -124.70185852 105.50091553 C-123.83731552 104.64983215 -122.97277252 103.79874878 -122.08203125 102.921875 C-121.19142502 102.03647034 -120.30081879 101.15106567 -119.38322449 100.23883057 C-117.01381223 97.88422236 -114.64045715 95.53375145 -112.26464844 93.18560791 C-108.93722835 89.89608841 -105.61478841 86.60157268 -102.29533386 83.30401611 C-100.53065247 81.55147181 -98.76330509 79.80160649 -96.99287415 78.05487061 C-93.44796449 74.53840725 -89.96112051 71.02591293 -86.71484375 67.23022461 C-81.44595745 61.10121002 -75.66959731 55.44207846 -69.98046875 49.70703125 C-69.35948114 49.08071997 -68.73849354 48.45440868 -68.09868813 47.80911827 C-64.81597659 44.49984596 -61.52971135 41.19414523 -58.2409668 37.89086914 C-55.53695152 35.17348984 -52.84040343 32.44901747 -50.15014648 29.71801758 C-46.8788785 26.39724135 -43.59532715 23.08908859 -40.30275917 19.78943443 C-39.05907753 18.53907988 -37.81962127 17.28450638 -36.58470726 16.02549171 C-26.7725276 6.0326979 -15.27133832 -4.88682826 0 0 Z " fill="#F64835" transform="translate(520,220)"/>
<path d="M0 0 C1.15680267 0.00424484 1.15680267 0.00424484 2.3369751 0.00857544 C4.79251832 0.01974237 7.2476926 0.04484021 9.703125 0.0703125 C11.37108847 0.08034682 13.03905768 0.08947189 14.70703125 0.09765625 C18.78920397 0.11967025 22.871102 0.15417583 26.953125 0.1953125 C26.953125 0.5253125 26.953125 0.8553125 26.953125 1.1953125 C22.85397432 1.97803036 19.05945997 2.28697757 14.890625 2.1875 C13.76398437 2.17074219 12.63734375 2.15398438 11.4765625 2.13671875 C9.12744399 2.0924449 6.77845973 2.04035984 4.4296875 1.98046875 C-2.47334687 1.89358845 -7.56554043 1.95406997 -12.859375 6.8828125 C-15.74444621 12.50110906 -15.19212292 19.77704577 -15.17817688 25.97981262 C-15.18029259 26.82826569 -15.18240831 27.67671875 -15.18458813 28.55088252 C-15.19054742 31.37483661 -15.18959091 34.19874549 -15.1887207 37.02270508 C-15.19175488 39.05527319 -15.19527705 41.08784061 -15.19924927 43.1204071 C-15.20711834 47.48883451 -15.21227564 51.85725381 -15.21553993 56.22568703 C-15.22146716 63.13939009 -15.23802335 70.05304215 -15.25688171 76.96672058 C-15.26321851 79.3369455 -15.26954414 81.70717046 -15.27585888 84.07739544 C-15.27902469 85.26413809 -15.2821905 86.45088074 -15.28545225 87.6735853 C-15.32747641 103.7616293 -15.36050663 119.84964887 -15.37280273 135.93774414 C-15.3811905 146.80084203 -15.40370496 157.66381278 -15.4421584 168.52684706 C-15.4618891 174.26996667 -15.47433334 180.01289636 -15.46932411 185.75605202 C-15.46466816 191.15950379 -15.4785351 196.56259557 -15.50633621 201.96597481 C-15.51323106 203.94318205 -15.51339302 205.92042665 -15.50613594 207.8976326 C-15.46092194 221.60592623 -16.05619715 233.72121476 -26.046875 244.1953125 C-31.52728207 249.09584247 -38.42076216 254.41462392 -46.046875 254.4453125 C-47.036875 254.3628125 -48.026875 254.2803125 -49.046875 254.1953125 C-45.44281824 251.792608 -41.82406133 250.66601321 -37.73828125 249.29296875 C-35.10878958 248.22056358 -33.27836732 246.91674944 -31.046875 245.1953125 C-30.386875 245.1953125 -29.726875 245.1953125 -29.046875 245.1953125 C-29.046875 244.5353125 -29.046875 243.8753125 -29.046875 243.1953125 C-28.386875 243.1953125 -27.726875 243.1953125 -27.046875 243.1953125 C-26.76972656 242.63585937 -26.49257813 242.07640625 -26.20703125 241.5 C-25.41886473 239.934282 -24.61348423 238.37713554 -23.79296875 236.828125 C-23.36113281 236.00054688 -22.92929687 235.17296875 -22.484375 234.3203125 C-22.04996094 233.49789062 -21.61554687 232.67546875 -21.16796875 231.828125 C-18.82363144 226.32260811 -18.89918465 220.6186857 -18.90211487 214.72052002 C-18.89858802 213.88123734 -18.89506118 213.04195467 -18.89142746 212.17723918 C-18.88077564 209.37238557 -18.8770656 206.56756597 -18.87329102 203.76269531 C-18.86698297 201.74850319 -18.86021689 199.73431246 -18.85302734 197.72012329 C-18.83837407 193.38549337 -18.82664251 189.05086877 -18.81707954 184.71622467 C-18.80160638 177.85756417 -18.77765684 170.99894952 -18.75218201 164.14031982 C-18.68103569 144.63784687 -18.62122707 125.13534778 -18.57006836 105.6328125 C-18.54173307 94.85949848 -18.50633526 84.08623021 -18.46341461 73.3129642 C-18.43669626 66.49998341 -18.41875785 59.68705435 -18.40737736 52.87403154 C-18.39822672 48.62776332 -18.38085327 44.38155775 -18.36119843 40.13532639 C-18.35374936 38.17221185 -18.34964346 36.20908122 -18.34920311 34.24595261 C-18.33972629 10.86387456 -18.33972629 10.86387456 -14.171875 4.1953125 C-9.75423251 0.03753133 -5.89885741 -0.08174028 0 0 Z " fill="#F43F2C" transform="translate(755.046875,518.8046875)"/>
<path d="M0 0 C5.220263 0.51685772 9.08302979 3.16819206 13.4375 5.875 C14.2315625 6.36532715 15.025625 6.8556543 15.84375 7.36083984 C26.30150738 13.93470699 35.7100331 21.61348517 44.7890625 29.97265625 C46.73982911 31.7614334 48.72980395 33.47843119 50.75 35.1875 C58.96202773 42.36045484 67.61338519 50.14739027 73.69140625 59.25390625 C75.0748852 61.18738983 75.0748852 61.18738983 77.359375 63.34765625 C104.88484425 90.99527995 122.23077424 132.27393084 133.4375 168.9375 C133.69700439 169.78465576 133.95650879 170.63181152 134.22387695 171.50463867 C134.4580835 172.29588135 134.69229004 173.08712402 134.93359375 173.90234375 C135.2438147 174.94636353 135.2438147 174.94636353 135.56030273 176.01147461 C136 178 136 178 136 182 C135.34 182 134.68 182 134 182 C133.6596875 180.73929688 133.319375 179.47859375 132.96875 178.1796875 C127.31107526 152.38160834 127.31107526 152.38160834 115 130 C114.32194584 128.00383192 113.65750162 126.00303172 113 124 C102.61329832 101.26636128 89.10732036 80.3001872 72.46801758 61.65649414 C71.45511247 60.51354367 70.4529382 59.36102419 69.4597168 58.20092773 C57.21930463 43.94542485 43.48830082 29.7350803 28 19 C27.28328125 18.50322754 26.5665625 18.00645508 25.828125 17.49462891 C17.90770797 12.05100336 9.90532044 6.75404651 1.5546875 1.98828125 C1.04164063 1.66214844 0.52859375 1.33601563 0 1 C0 0.67 0 0.34 0 0 Z " fill="#F84532" transform="translate(504,362)"/>
<path d="M0 0 C0.66 0.33 1.32 0.66 2 1 C9.62566214 29.85512897 3.62066932 63.7816149 -10.83984375 89.40234375 C-17.56421678 100.85541046 -27.36631673 114.20844436 -39 121 C-42.99246409 121.56034584 -45.1263065 121.46732443 -48.6875 119.5625 C-55.82324149 111.655327 -59.44863645 97.43079749 -59 87 C-58.34 87 -57.68 87 -57 87 C-56.84442627 87.72590332 -56.68885254 88.45180664 -56.52856445 89.19970703 C-55.80790566 92.51235732 -55.0605036 95.81842173 -54.3125 99.125 C-54.06822266 100.26710938 -53.82394531 101.40921875 -53.57226562 102.5859375 C-52.11307757 108.93987028 -50.95603637 113.59891638 -46 118 C-42.27788769 118.59819662 -39.98923041 118.39569216 -36.5 117 C-32.83112695 114.06490156 -29.98808915 110.61085723 -27 107 C-26.28457031 106.17113281 -25.56914062 105.34226562 -24.83203125 104.48828125 C-15.38021204 93.34457013 -8.88689924 81.66493456 -4 68 C-3.68160156 67.13890625 -3.36320312 66.2778125 -3.03515625 65.390625 C3.8137157 45.08252707 1.97152387 21.01785267 0 0 Z " fill="#F84430" transform="translate(505,384)"/>
<path d="M0 0 C0.99 0.495 0.99 0.495 2 1 C1.16728073 1.82827805 0.33456146 2.65655609 -0.52339172 3.50993347 C-8.37140571 11.31739911 -16.21412967 19.13014411 -24.05170918 26.94808483 C-28.08122389 30.96716366 -32.11257738 34.9843613 -36.14819336 38.99731445 C-40.04291054 42.87029662 -43.93271791 46.74814782 -47.81917381 50.62941933 C-49.30257647 52.10912744 -50.78773798 53.58707449 -52.274683 55.06322289 C-54.35748749 57.131504 -56.43394312 59.20596557 -58.5090332 61.28198242 C-59.43260368 62.19476707 -59.43260368 62.19476707 -60.37483215 63.12599182 C-64.77601324 67.54848103 -68.4271511 71.38664336 -68.4375 77.9375 C-68.28235325 82.67652795 -67.24117032 85.40843289 -64 89 C-57.07314937 94.73939052 -44.9857531 93.27393141 -36.4375 93.5625 C-34.63829102 93.62727539 -34.63829102 93.62727539 -32.80273438 93.69335938 C-29.86858207 93.79856802 -26.9343575 93.90070883 -24 94 C-24 94.33 -24 94.66 -24 95 C-28.85630418 95.09938127 -33.71200765 95.17170794 -38.5690918 95.21972656 C-40.21893637 95.23975797 -41.8687107 95.26699142 -43.51831055 95.30175781 C-45.89910274 95.35065357 -48.278951 95.3730528 -50.66015625 95.390625 C-51.38960953 95.41127014 -52.11906281 95.43191528 -52.87062073 95.45318604 C-58.34078368 95.45554632 -61.46417288 94.06426374 -66 91 C-69.74163647 87.2336934 -71.3242942 83.14728846 -71.5625 77.875 C-71.32194836 73.26206848 -69.98829114 70.58594936 -67 67 C-66.195625 65.824375 -66.195625 65.824375 -65.375 64.625 C-64.92125 64.08875 -64.4675 63.5525 -64 63 C-63.34 63 -62.68 63 -62 63 C-62 62.34 -62 61.68 -62 61 C-61.34 61 -60.68 61 -60 61 C-59.34 59.68 -58.68 58.36 -58 57 C-57.34 57 -56.68 57 -56 57 C-56 56.34 -56 55.68 -56 55 C-55.34 55 -54.68 55 -54 55 C-53.67 54.01 -53.34 53.02 -53 52 C-52.34 52 -51.68 52 -51 52 C-51 51.34 -51 50.68 -51 50 C-49.5390625 48.59765625 -49.5390625 48.59765625 -47.625 47.0625 C-45.16098476 45.08013383 -43.79533563 43.69300345 -42 41 C-41.34 41 -40.68 41 -40 41 C-39.73082764 40.40616516 -39.46165527 39.81233032 -39.18432617 39.20050049 C-37.99891049 36.99797566 -36.80893868 35.55550407 -35.05078125 33.79199219 C-34.45676514 33.19167175 -33.86274902 32.59135132 -33.25073242 31.97283936 C-32.61111572 31.33727112 -31.97149902 30.70170288 -31.3125 30.046875 C-30.65419189 29.38665344 -29.99588379 28.72643188 -29.31762695 28.04620361 C-27.92807708 26.65529499 -26.53600726 25.26689992 -25.14160156 23.88085938 C-23.00090714 21.75090259 -20.8711209 19.61045504 -18.7421875 17.46875 C-17.39126613 16.11914961 -16.03972482 14.77016941 -14.6875 13.421875 C-14.0478833 12.77820984 -13.4082666 12.13454468 -12.74926758 11.47137451 C-8.22992911 7 -8.22992911 7 -6 7 C-5.7525 6.401875 -5.505 5.80375 -5.25 5.1875 C-3.83629988 2.71352479 -2.34944617 1.56629745 0 0 Z " fill="#F6422D" transform="translate(298,425)"/>
<path d="M0 0 C3.38361519 0.61728115 5.52002561 1.86979718 8.25 3.9375 C8.95640625 4.46214844 9.6628125 4.98679688 10.390625 5.52734375 C11.18726563 6.25630859 11.18726563 6.25630859 12 7 C12 7.66 12 8.32 12 9 C12.5775 9.2475 13.155 9.495 13.75 9.75 C16.32939979 11.18299988 18.06121592 12.78424676 20 15 C20 15.66 20 16.32 20 17 C20.99 17.33 21.98 17.66 23 18 C25.6875 20.4375 25.6875 20.4375 28 23 C28 23.66 28 24.32 28 25 C28.99 25.33 29.98 25.66 31 26 C33.1875 27.9375 33.1875 27.9375 35 30 C35 30.66 35 31.32 35 32 C35.5775 32.2475 36.155 32.495 36.75 32.75 C39.32939979 34.18299988 41.06121592 35.78424676 43 38 C43 38.66 43 39.32 43 40 C43.55171875 40.226875 44.1034375 40.45375 44.671875 40.6875 C47.68692417 42.38725926 49.81230369 44.54804816 52.25 47 C53.58804688 48.3303125 53.58804688 48.3303125 54.953125 49.6875 C57 52 57 52 57 54 C57.57490173 54.24958466 58.14980347 54.49916931 58.74212646 54.75631714 C61.32428004 56.17862007 63.04831851 57.80811799 65.12597656 59.89892578 C65.92650452 60.6996048 66.72703247 61.50028381 67.55181885 62.32522583 C68.40612488 63.18985443 69.26043091 64.05448303 70.140625 64.9453125 C71.02280701 65.8303244 71.90498901 66.7153363 72.81390381 67.62716675 C75.15194543 69.97450131 77.48555874 72.32606785 79.81713867 74.67980957 C82.19996526 77.08313927 84.58850348 79.48077767 86.9765625 81.87890625 C91.65631862 86.58071467 96.33031867 91.28818664 101 96 C100.67 96.66 100.34 97.32 100 98 C89.93885536 88.94233335 80.34619935 79.45656036 70.80803108 69.85263062 C68.16598273 67.19294822 65.52019761 64.53703365 62.87339783 61.88208008 C55.35875981 54.34318462 47.8499892 46.79846689 40.34545898 39.24951172 C35.7313788 34.60820746 31.11199012 29.97222213 26.48980522 25.33898926 C24.73725087 23.58023944 22.9865947 21.81959596 21.23790169 20.05700684 C18.79995265 17.59982908 16.35589324 15.14888539 13.91040039 12.69921875 C13.19498581 11.97504257 12.47957123 11.25086639 11.74247742 10.50474548 C8.03636386 6.80583513 4.42425032 3.7921703 0 1 C0 0.67 0 0.34 0 0 Z " fill="#F84836" transform="translate(521,222)"/>
<path d="M0 0 C0.33 0 0.66 0 1 0 C1.16435547 0.97839844 1.16435547 0.97839844 1.33203125 1.9765625 C3.08881873 11.66031789 6.66217121 18.31469625 14 25 C19.37055155 28.36056702 24.90073312 31.10410752 31.30900574 31.15821838 C32.18820175 31.1680072 33.06739777 31.17779602 33.97323608 31.18788147 C35.41577255 31.19651466 35.41577255 31.19651466 36.88745117 31.20532227 C38.4096653 31.22017166 38.4096653 31.22017166 39.96263123 31.23532104 C43.32271986 31.26695209 46.68282264 31.29169991 50.04296875 31.31640625 C52.37039053 31.33697438 54.69780857 31.35797082 57.02522278 31.37937927 C63.15559863 31.43461442 69.28600828 31.48401738 75.41644287 31.53222656 C81.67023735 31.58243101 87.92398267 31.6381226 94.17773438 31.69335938 C106.45178093 31.80095862 118.72587015 31.90239971 131 32 C131 32.33 131 32.66 131 33 C117.34430211 33.15362516 103.68855719 33.301807 90.03272438 33.4429636 C83.69235618 33.50867494 77.35201998 33.57628915 71.01171875 33.64819336 C64.8974751 33.71746486 58.78319796 33.78181473 52.6688652 33.84269524 C50.33156821 33.86684378 47.99428911 33.89279127 45.65703201 33.92053413 C42.39329072 33.95897238 39.1295454 33.9911186 35.86572266 34.02172852 C34.89108566 34.03467453 33.91644867 34.04762054 32.91227722 34.06095886 C31.58292397 34.0715181 31.58292397 34.0715181 30.22671509 34.08229065 C29.45425257 34.09058679 28.68179005 34.09888292 27.88591957 34.10743046 C26 34 26 34 24 33 C23.67 33.66 23.34 34.32 23 35 C22.34 34.34 21.68 33.68 21 33 C19.05984157 31.49859109 17.09307759 30.06387308 15.0703125 28.67578125 C7.44412458 23.33132426 1.55248447 16.10440321 -1 7 C-1.02361264 4.43094449 -0.64211635 2.51495571 0 0 Z " fill="#FC5347" transform="translate(285,740)"/>
<path d="M0 0 C0.66 0.33 1.32 0.66 2 1 C1.59273682 1.39678955 1.18547363 1.7935791 0.76586914 2.20239258 C-7.34142804 10.1289939 -15.01973898 18.05307814 -22 27 C-22.6496875 27.77085937 -23.299375 28.54171875 -23.96875 29.3359375 C-37.43832465 45.42459611 -46.75688845 64.19346599 -53.31884766 84.00390625 C-54.46623761 87.36629345 -55.73638699 90.67977344 -57 94 C-57.33 94 -57.66 94 -58 94 C-57.44922459 88.32764639 -56.37627018 83.35075268 -54.4375 78 C-54.17573975 77.27014893 -53.91397949 76.54029785 -53.64428711 75.78833008 C-50.71516899 67.87315278 -47.00541398 60.41773015 -43 53 C-42.43410156 51.94039062 -41.86820312 50.88078125 -41.28515625 49.7890625 C-34.76447258 38.09786025 -26.13018644 27.99278099 -17.4453125 17.875 C-15.90508708 16.06412794 -14.3959834 14.22585396 -12.93359375 12.3515625 C-11.073364 10.08922248 -9.17184643 8.26063341 -6.9375 6.375 C-4.52558972 4.32881124 -2.20605281 2.26790476 0 0 Z " fill="#F8422D" transform="translate(438,469)"/>
<path d="M0 0 C0.33 0 0.66 0 1 0 C0.08822311 12.37688636 0.08822311 12.37688636 -0.5625 17.75 C-1.73225668 29.40983269 -1.15335179 40.85589422 0.5625 52.4140625 C0.99774973 55.98155584 1.07382882 59.41007376 1 63 C-4.59229894 54.61155159 -3.34296857 42.15062909 -3.31567383 32.37304688 C-3.3125046 30.00344146 -3.33609512 27.63507805 -3.36132812 25.265625 C-3.39629493 16.42490934 -2.75253761 8.49818651 0 0 Z " fill="#F63E28" transform="translate(379,564)"/>
<path d="M0 0 C0.33 0 0.66 0 1 0 C1.16435547 0.97839844 1.16435547 0.97839844 1.33203125 1.9765625 C3.09141177 11.67461122 6.67234392 18.29123379 14 25 C19.28351518 28.41777388 24.90445369 30.54236936 31 32 C31 32.66 31 33.32 31 34 C27.535 33.505 27.535 33.505 24 33 C23.67 33.66 23.34 34.32 23 35 C22.34 34.34 21.68 33.68 21 33 C19.05984157 31.49859109 17.09307759 30.06387308 15.0703125 28.67578125 C7.44412458 23.33132426 1.55248447 16.10440321 -1 7 C-1.02361264 4.43094449 -0.64211635 2.51495571 0 0 Z " fill="#F34936" transform="translate(285,740)"/>
<path d="M0 0 C3.02515469 0.32412372 3.91241339 0.89828652 5.9375 3.25 C6.618125 4.1575 7.29875 5.065 8 6 C8.825 6.825 9.65 7.65 10.5 8.5 C15.39852646 13.39852646 17.65597594 16.42214975 18.3125 23.25 C17.79535876 29.45569493 15.73554222 33.51755768 11 37.5625 C7.74586174 39.12177459 7.22824096 39.05056979 4 38 C4.54269531 37.69707031 5.08539062 37.39414062 5.64453125 37.08203125 C11.52623029 33.6814173 11.52623029 33.6814173 15 28 C15.61764077 22.54417324 14.93450219 17.66390215 12 13 C9.03970928 9.6136815 5.78783251 6.52630283 2.51953125 3.44140625 C1.68808594 2.63574219 0.85664062 1.83007812 0 1 C0 0.67 0 0.34 0 0 Z " fill="#F6442F" transform="translate(779,480)"/>
<path d="M0 0 C0.66 0.66 1.32 1.32 2 2 C1.86883926 9.75487888 -2.49731846 16.22327003 -7.59765625 21.72265625 C-12.81664265 26.54682571 -19.81254596 31.29769746 -27.125 31.3125 C-28.07375 31.209375 -29.0225 31.10625 -30 31 C-26.39594324 28.5972955 -22.77718633 27.47070071 -18.69140625 26.09765625 C-16.06191458 25.02525108 -14.23149232 23.72143694 -12 22 C-11.34 22 -10.68 22 -10 22 C-10 21.34 -10 20.68 -10 20 C-9.34 20 -8.68 20 -8 20 C-7.72285156 19.44054687 -7.44570313 18.88109375 -7.16015625 18.3046875 C-6.37198973 16.7389695 -5.56660923 15.18182304 -4.74609375 13.6328125 C-2.3791352 9.09673074 -0.40974401 5.19009077 0 0 Z " fill="#F54531" transform="translate(736,742)"/>
<path d="M0 0 C1.15680267 0.00424484 1.15680267 0.00424484 2.3369751 0.00857544 C4.79251832 0.01974237 7.2476926 0.04484021 9.703125 0.0703125 C11.37108847 0.08034682 13.03905768 0.08947189 14.70703125 0.09765625 C18.78920397 0.11967025 22.871102 0.15417583 26.953125 0.1953125 C26.953125 0.5253125 26.953125 0.8553125 26.953125 1.1953125 C22.85397432 1.97803036 19.05945997 2.28697757 14.890625 2.1875 C13.76398437 2.17074219 12.63734375 2.15398438 11.4765625 2.13671875 C9.12744399 2.0924449 6.77845973 2.04035984 4.4296875 1.98046875 C-2.47334687 1.89358845 -7.56554043 1.95406997 -12.859375 6.8828125 C-14.6013407 10.27506149 -14.73087522 13.40331515 -15.046875 17.1953125 C-15.376875 17.1953125 -15.706875 17.1953125 -16.046875 17.1953125 C-17.59357843 10.41361283 -17.59357843 10.41361283 -16.140625 7.17578125 C-11.70746937 0.75581502 -7.67959543 -0.10641592 0 0 Z " fill="#F63E2D" transform="translate(755.046875,518.8046875)"/>
<path d="M0 0 C6.74008811 3.14537445 6.74008811 3.14537445 9 6 C9.90208123 8.7062437 10.12227599 10.23850986 10.11352539 13.01245117 C10.11344986 13.81305466 10.11337433 14.61365814 10.11329651 15.43852234 C10.10813522 16.29798965 10.10297394 17.15745697 10.09765625 18.04296875 C10.0962413 18.9265657 10.09482635 19.81016266 10.09336853 20.72053528 C10.08777069 23.54289128 10.07521861 26.36516797 10.0625 29.1875 C10.05748472 31.10091031 10.05292186 33.01432187 10.04882812 34.92773438 C10.03780197 39.61852014 10.02053883 44.30924663 10 49 C9.67 49 9.34 49 9 49 C8.98541748 47.87505127 8.97083496 46.75010254 8.95581055 45.59106445 C8.89772246 41.40682613 8.82049036 37.22312003 8.73754883 33.03930664 C8.70434886 31.23047542 8.67630159 29.42154182 8.65356445 27.61254883 C8.61992742 25.00818367 8.56760805 22.4047524 8.51171875 19.80078125 C8.50532883 18.99538406 8.4989389 18.18998688 8.49235535 17.36018372 C8.3707025 12.6867772 7.77479484 9.92199923 5 6 C5 5.34 5 4.68 5 4 C2.69 3.34 0.38 2.68 -2 2 C-1.34 1.34 -0.68 0.68 0 0 Z " fill="#F75D4E" transform="translate(274,519)"/>
<path d="M0 0 C3.38361519 0.61728115 5.52002561 1.86979718 8.25 3.9375 C8.95640625 4.46214844 9.6628125 4.98679688 10.390625 5.52734375 C11.18726563 6.25630859 11.18726563 6.25630859 12 7 C12 7.66 12 8.32 12 9 C12.5775 9.2475 13.155 9.495 13.75 9.75 C16.32939979 11.18299988 18.06121592 12.78424676 20 15 C20 15.66 20 16.32 20 17 C20.99 17.33 21.98 17.66 23 18 C24.60546875 19.62890625 24.60546875 19.62890625 26.1875 21.5625 C26.98220703 22.52349609 26.98220703 22.52349609 27.79296875 23.50390625 C28.19128906 23.99761719 28.58960938 24.49132812 29 25 C28.67 25.66 28.34 26.32 28 27 C27.36497559 26.35450195 26.72995117 25.70900391 26.07568359 25.04394531 C23.69794693 22.63194981 21.31564069 20.22465573 18.93017578 17.8203125 C17.90228994 16.78242212 16.87621275 15.74273705 15.85205078 14.70117188 C14.3723367 13.19696398 12.88605309 11.69951423 11.3984375 10.203125 C10.50817871 9.30239258 9.61791992 8.40166016 8.70068359 7.47363281 C6.68807345 5.63022602 4.9168514 4.20557105 2.66259766 2.73730469 C1.78394043 2.16399414 0.9052832 1.59068359 0 1 C0 0.67 0 0.34 0 0 Z " fill="#F6412B" transform="translate(521,222)"/>
<path d="M0 0 C0.33 0 0.66 0 1 0 C1.16435547 0.97839844 1.16435547 0.97839844 1.33203125 1.9765625 C2.26772626 7.13429595 3.37163092 11.40035412 6 16 C6.66666667 17.33333333 7.33333333 18.66666667 8 20 C5.21098747 18.9668112 4.11604388 18.17988292 2.48046875 15.64453125 C-0.13465906 9.91653227 -1.7788278 6.15748086 0 0 Z " fill="#F5422D" transform="translate(285,740)"/>
<path d="M0 0 C2 1 2 1 2.8515625 3.22265625 C4.42772789 9.00988978 5.33939658 14.00399381 5 20 C3.33933899 16.93138727 2.29822725 13.92435277 1.375 10.5625 C1.11460937 9.63566406 0.85421875 8.70882813 0.5859375 7.75390625 C0.01618796 5.07608341 -0.10889863 2.72741575 0 0 Z " fill="#FA4734" transform="translate(500,363)"/>
<path d="M0 0 C0.33 0 0.66 0 1 0 C0.43434519 7.67846322 -0.1876779 15.34343208 -1 23 C-1.33 23 -1.66 23 -2 23 C-3.36186463 14.66473215 -2.48492447 8.04441651 0 0 Z " fill="#F94936" transform="translate(379,564)"/>
<path d="M0 0 C7.21254355 3.36585366 7.21254355 3.36585366 9 6 C9.6875 9.6875 9.6875 9.6875 10 13 C7.82615436 10.82615436 6.47801239 8.68729526 5 6 C5 5.34 5 4.68 5 4 C2.69 3.34 0.38 2.68 -2 2 C-1.34 1.34 -0.68 0.68 0 0 Z " fill="#F64937" transform="translate(274,519)"/>
<path d="M0 0 C0.66 0.66 1.32 1.32 2 2 C1.01 3.485 1.01 3.485 0 5 C-0.43738696 6.71444889 -0.80848688 8.44667784 -1.125 10.1875 C-1.29257813 11.08855469 -1.46015625 11.98960937 -1.6328125 12.91796875 C-1.75398437 13.60503906 -1.87515625 14.29210937 -2 15 C-2.33 15 -2.66 15 -3 15 C-3.55353075 4.44191344 -3.55353075 4.44191344 0 0 Z " fill="#F34B38" transform="translate(230,493)"/>
<path d="M0 0 C0.66 0.33 1.32 0.66 2 1 C-1.3 4.3 -4.6 7.6 -8 11 C-8.33 10.01 -8.66 9.02 -9 8 C-8.01 7.67 -7.02 7.34 -6 7 C-5.690625 6.38125 -5.38125 5.7625 -5.0625 5.125 C-3.79701313 2.59402625 -2.32727163 1.55151442 0 0 Z " fill="#F7402B" transform="translate(298,425)"/>
<path d="M0 0 C-2.49661858 2.49661858 -4.65474613 2.90635931 -8 4 C-9.0725 4.556875 -10.145 5.11375 -11.25 5.6875 C-12.1575 6.120625 -13.065 6.55375 -14 7 C-14.66 6.67 -15.32 6.34 -16 6 C-14.73168307 5.18357746 -13.46024069 4.37200895 -12.1875 3.5625 C-11.47980469 3.11003906 -10.77210938 2.65757812 -10.04296875 2.19140625 C-6.60586789 0.18697841 -3.90084143 -0.10542815 0 0 Z " fill="#FA605B" transform="translate(512,221)"/>
<path d="M0 0 C2.13562754 2.13562754 2.63318342 3.06546739 3 6 C2.34 6.66 1.68 7.32 1 8 C0.67 6.35 0.34 4.7 0 3 C-1.98 3.99 -1.98 3.99 -4 5 C-4 4.01 -4 3.02 -4 2 C-2.68 1.34 -1.36 0.68 0 0 Z " fill="#F94D3F" transform="translate(444,465)"/>
<path d="M0 0 C0.66 0.66 1.32 1.32 2 2 C0.02 4.97 -1.96 7.94 -4 11 C-4.66 10.01 -5.32 9.02 -6 8 C-4.02 5.36 -2.04 2.72 0 0 Z " fill="#FB4934" transform="translate(407,503)"/>
<path d="M0 0 C0.33 0.99 0.66 1.98 1 3 C-0.65 4.65 -2.3 6.3 -4 8 C-4.99 7.67 -5.98 7.34 -7 7 C-5.68 6.34 -4.36 5.68 -3 5 C-3 4.34 -3 3.68 -3 3 C-2.34 3 -1.68 3 -1 3 C-0.67 2.01 -0.34 1.02 0 0 Z " fill="#F54A36" transform="translate(245,477)"/>
<path d="M0 0 C0.33 0.66 0.66 1.32 1 2 C0.34 1.67 -0.32 1.34 -1 1 C-0.67 0.67 -0.34 0.34 0 0 Z " fill="#F66158" transform="translate(442,469)"/>
<path d="" fill="#EC6254" transform="translate(0,0)"/>
<path d="" fill="#ED6157" transform="translate(0,0)"/>
<path d="" fill="#F66159" transform="translate(0,0)"/>
<path d="" fill="#F76159" transform="translate(0,0)"/>
<path d="M0 0 C2 1 2 1 2 1 Z " fill="#F66157" transform="translate(600,461)"/>
<path d="M0 0 C2 1 2 1 2 1 Z " fill="#E86255" transform="translate(678,267)"/>
<path d="" fill="#906D3D" transform="translate(0,0)"/>
<path d="" fill="#EB6357" transform="translate(0,0)"/>
<path d="" fill="#EB6055" transform="translate(0,0)"/>
<path d="" fill="#EA655A" transform="translate(0,0)"/>
<path d="" fill="#E76757" transform="translate(0,0)"/>
<path d="" fill="#E86356" transform="translate(0,0)"/>
<path d="" fill="#F36157" transform="translate(0,0)"/>
<path d="" fill="#F56258" transform="translate(0,0)"/>
<path d="" fill="#F6625A" transform="translate(0,0)"/>
<path d="" fill="#F46158" transform="translate(0,0)"/>
<path d="" fill="#EF6259" transform="translate(0,0)"/>
<path d="" fill="#F7645B" transform="translate(0,0)"/>
<path d="" fill="#EF6259" transform="translate(0,0)"/>
<path d="" fill="#F66157" transform="translate(0,0)"/>
<path d="" fill="#F76459" transform="translate(0,0)"/>
<path d="" fill="#F86157" transform="translate(0,0)"/>
<path d="" fill="#F06258" transform="translate(0,0)"/>
<path d="" fill="#FA625A" transform="translate(0,0)"/>
<path d="" fill="#F35F54" transform="translate(0,0)"/>
<path d="" fill="#F66359" transform="translate(0,0)"/>
<path d="" fill="#F2615A" transform="translate(0,0)"/>
<path d="" fill="#F46459" transform="translate(0,0)"/>
<path d="" fill="#F16259" transform="translate(0,0)"/>
<path d="" fill="#F36157" transform="translate(0,0)"/>
<path d="" fill="#F76359" transform="translate(0,0)"/>
<path d="" fill="#F5675D" transform="translate(0,0)"/>
<path d="" fill="#F56057" transform="translate(0,0)"/>
<path d="" fill="#F56458" transform="translate(0,0)"/>
<path d="" fill="#E76557" transform="translate(0,0)"/>
<path d="" fill="#F56158" transform="translate(0,0)"/>
<path d="" fill="#F86258" transform="translate(0,0)"/>
<path d="" fill="#F46057" transform="translate(0,0)"/>
<path d="" fill="#F56055" transform="translate(0,0)"/>
<path d="" fill="#F45F56" transform="translate(0,0)"/>
<path d="" fill="#F56158" transform="translate(0,0)"/>
<path d="" fill="#F56157" transform="translate(0,0)"/>
<path d="" fill="#F76058" transform="translate(0,0)"/>
<path d="" fill="#F4645B" transform="translate(0,0)"/>
<path d="" fill="#F4645A" transform="translate(0,0)"/>
<path d="" fill="#F96559" transform="translate(0,0)"/>
<path d="" fill="#F36059" transform="translate(0,0)"/>
<path d="" fill="#F76257" transform="translate(0,0)"/>
<path d="" fill="#F96358" transform="translate(0,0)"/>
<path d="" fill="#F55F56" transform="translate(0,0)"/>
<path d="" fill="#F96257" transform="translate(0,0)"/>
<path d="" fill="#F16454" transform="translate(0,0)"/>
<path d="" fill="#F66559" transform="translate(0,0)"/>
<path d="" fill="#F56157" transform="translate(0,0)"/>
<path d="" fill="#F96157" transform="translate(0,0)"/>
<path d="" fill="#F66157" transform="translate(0,0)"/>
<path d="" fill="#F56158" transform="translate(0,0)"/>
<path d="" fill="#F16359" transform="translate(0,0)"/>
<path d="" fill="#F4625A" transform="translate(0,0)"/>
<path d="" fill="#F55F56" transform="translate(0,0)"/>
<path d="" fill="#F96158" transform="translate(0,0)"/>
<path d="" fill="#FB6058" transform="translate(0,0)"/>
<path d="" fill="#F76057" transform="translate(0,0)"/>
<path d="" fill="#F95F57" transform="translate(0,0)"/>
<path d="" fill="#F2645B" transform="translate(0,0)"/>
<path d="" fill="#F56158" transform="translate(0,0)"/>
<path d="" fill="#F26257" transform="translate(0,0)"/>
<path d="" fill="#F36458" transform="translate(0,0)"/>
<path d="" fill="#F86258" transform="translate(0,0)"/>
<path d="" fill="#EF6456" transform="translate(0,0)"/>
</svg>
